# xmcd
#
# Track frame offsets: 
#        150
#        28892
#        48678
#        68928
#        88803
#        105528
#        127128
#        149328
#        166628
#        195953
#
# Disc length: 2802 seconds
#
# Revision: 0
# Processed by: cddbd v1.5.2PL0 Copyright (c) Steve Scherf et al.
# Submitted via: ExactAudioCopyFreeDBPlugin 1.0
#
DISCID=8d0af00a
DTITLE=Double Vision - Tracks
DYEAR=2019
DGENRE=Blues Rock
TTITLE0=Draggin' Me Down
TTITLE1=Heros
TTITLE2=The Last Bluesman
TTITLE3=Top Secret
TTITLE4=High-Treated Motor Blues
TTITLE5=I'm Waiting
TTITLE6=Blues 'n Roll
TTITLE7=I See Clear
TTITLE8=Rollin' Spinster
TTITLE9=1989
EXTD=
EXTT0=
EXTT1=
EXTT2=
EXTT3=
EXTT4=
EXTT5=
EXTT6=
EXTT7=
EXTT8=
EXTT9=
PLAYORDER=
